<svg width="80" height="80" viewBox="0 0 80 80" fill="none" xmlns="http://www.w3.org/2000/svg">
  <!-- Main body -->
  <path d="M40 65C52 65 60 55 60 45C60 35 52 25 40 25C28 25 20 35 20 45C20 55 28 65 40 65Z" fill="#7ED321" stroke="#4A9B0E" stroke-width="2"/>
  
  <!-- Leaf on top -->
  <ellipse cx="35" cy="20" rx="8" ry="12" fill="#7ED321" stroke="#4A9B0E" stroke-width="2" transform="rotate(-20 35 20)"/>
  
  <!-- Stem/curl -->
  <path d="M40 15C42 12 45 10 48 12C50 14 48 16 45 16" fill="none" stroke="#4A9B0E" stroke-width="2" stroke-linecap="round"/>
  
  <!-- Eyes -->
  <circle cx="32" cy="40" r="4" fill="#2D5A0B"/>
  <circle cx="48" cy="40" r="4" fill="#2D5A0B"/>
  
  <!-- Eye highlights -->
  <circle cx="33" cy="39" r="1.5" fill="white"/>
  <circle cx="49" cy="39" r="1.5" fill="white"/>
  
  <!-- Mouth -->
  <path d="M35 50C38 53 42 53 45 50" fill="none" stroke="#2D5A0B" stroke-width="2" stroke-linecap="round"/>
  
  <!-- Cheeks -->
  <circle cx="26" cy="48" r="3" fill="#F5A623" opacity="0.6"/>
  <circle cx="54" cy="48" r="3" fill="#F5A623" opacity="0.6"/>
  
  <!-- Arms -->
  <ellipse cx="18" cy="48" rx="6" ry="4" fill="#7ED321" stroke="#4A9B0E" stroke-width="1"/>
  <ellipse cx="62" cy="48" rx="6" ry="4" fill="#7ED321" stroke="#4A9B0E" stroke-width="1"/>
</svg> 